<?xml version="1.0" encoding="iso-8859-1"?>
<!-- Generator: Adobe Illustrator 19.0.0, SVG Export Plug-In . SVG Version: 6.00 Build 0)  -->
<svg version="1.1" id="Capa_1" xmlns="http://www.w3.org/2000/svg" xmlns:xlink="http://www.w3.org/1999/xlink" x="0px" y="0px"
	 viewBox="0 0 427 427" style="enable-background:new 0 0 427 427;" xml:space="preserve">
<g>
	<path d="M419.5,406.5H396V291.969c12.657-7.258,20.478-17.691,20.478-29.469s-7.821-22.211-20.478-29.469V106.5h22
		c2.353,0,4.568-1.104,5.986-2.981c1.417-1.877,1.871-4.312,1.227-6.574l-24.507-86c-0.918-3.223-3.862-5.445-7.213-5.445H33.506
		c-3.351,0-6.295,2.222-7.213,5.445l-24.506,86c-0.645,2.262-0.19,4.696,1.227,6.574C4.432,105.396,6.647,106.5,9,106.5h22v300H7.5
		c-4.143,0-7.5,3.358-7.5,7.5s3.357,7.5,7.5,7.5h412c4.143,0,7.5-3.358,7.5-7.5S423.643,406.5,419.5,406.5z M358,302.5v82H69v-82
		H358z M351.848,222.502c-23.35,0.027-43.409,7.383-54.676,18.634c-16.82-1.262-31.821-7.207-38.826-15.539
		c-2.532-3.006-3.816-6.104-3.816-9.208c0-14.733,26.087-25,49.5-25s49.5,10.267,49.5,25
		C353.529,218.436,352.956,220.481,351.848,222.502z M249.752,238.303c8.876,8.587,22.668,14.587,38.757,16.952
		c-0.666,2.345-1.032,4.763-1.032,7.245c0,6.703,2.546,12.965,7.059,18.461c-9.046,4.163-20.647,6.539-32.686,6.539
		c-23.413,0-49.5-10.267-49.5-25C212.35,252.754,226.265,241.407,249.752,238.303z M199,274c0,7.444-6.056,13.5-13.5,13.5
		S172,281.444,172,274s6.056-13.5,13.5-13.5S199,266.556,199,274z M122.337,251.232c-7.444,0-13.5-6.056-13.5-13.5
		s6.056-13.5,13.5-13.5c7.444,0,13.5,6.056,13.5,13.5S129.781,251.232,122.337,251.232z M88,274c0-7.444,6.056-13.5,13.5-13.5
		S115,266.556,115,274s-6.056,13.5-13.5,13.5S88,281.444,88,274z M130,274c0-7.444,6.056-13.5,13.5-13.5S157,266.556,157,274
		s-6.056,13.5-13.5,13.5S130,281.444,130,274z M164.337,251.232c-7.444,0-13.5-6.056-13.5-13.5s6.056-13.5,13.5-13.5
		s13.5,6.056,13.5,13.5S171.781,251.232,164.337,251.232z M143.5,214.629c-7.444,0-13.5-6.056-13.5-13.5s6.056-13.5,13.5-13.5
		s13.5,6.056,13.5,13.5S150.944,214.629,143.5,214.629z M101.5,214.629c-7.444,0-13.5-6.056-13.5-13.5s6.056-13.5,13.5-13.5
		s13.5,6.056,13.5,13.5S108.944,214.629,101.5,214.629z M93.837,237.732c0,7.444-6.056,13.5-13.5,13.5s-13.5-6.056-13.5-13.5
		s6.056-13.5,13.5-13.5S93.837,230.289,93.837,237.732z M59.5,260.5c7.444,0,13.5,6.056,13.5,13.5s-6.056,13.5-13.5,13.5
		S46,281.444,46,274S52.056,260.5,59.5,260.5z M351.978,287.5c-23.413,0-49.5-10.267-49.5-25s26.087-25,49.5-25s49.5,10.267,49.5,25
		S375.391,287.5,351.978,287.5z M408.064,91.5h-42.366l-14.452-71h36.585L408.064,91.5z M134.328,91.5l8.671-71h36.975l-2.89,71
		H134.328z M76.609,91.5l14.451-71h36.828l-8.671,71H76.609z M194.987,20.5h37.024l2.89,71h-42.805L194.987,20.5z M249.915,91.5
		l-2.89-71H284l8.671,71H249.915z M307.782,91.5l-8.671-71h36.828l14.452,71H307.782z M39.167,20.5h36.585l-14.451,71H18.936
		L39.167,20.5z M381,106.5v120.144c-4.239-1.296-8.753-2.312-13.488-3.013c0.673-2.376,1.018-4.802,1.018-7.241
		c0-22.43-28.332-40-64.5-40s-64.5,17.57-64.5,40c0,2.78,0.451,5.538,1.32,8.225c-19.272,4.007-34.045,13.391-40.269,25.218
		c-2.733-1.712-5.774-2.972-9.021-3.678c0.826-2.664,1.278-5.491,1.278-8.422c0-13.565-9.529-24.939-22.242-27.799
		c0.904-2.775,1.405-5.731,1.405-8.804c0-15.715-12.785-28.5-28.5-28.5c-8.532,0-16.195,3.774-21.422,9.734
		c-4.824-5.96-12.046-9.734-20.578-9.734c-15.715,0-28.5,12.785-28.5,28.5c0,3.047,0.486,5.981,1.375,8.736
		c-12.862,2.749-22.538,14.198-22.538,27.868c0,2.958,0.467,5.806,1.307,8.491c-2.524,0.577-4.923,1.484-7.144,2.684V106.5H381z
		 M46,406.5v-104h8V392c0,4.142,3.357,7.5,7.5,7.5h304c4.143,0,7.5-3.358,7.5-7.5v-89.5h8v104H46z"/>
</g>
<g>
</g>
<g>
</g>
<g>
</g>
<g>
</g>
<g>
</g>
<g>
</g>
<g>
</g>
<g>
</g>
<g>
</g>
<g>
</g>
<g>
</g>
<g>
</g>
<g>
</g>
<g>
</g>
<g>
</g>
</svg>
